# xmcd
#
# Track frame offsets:
#	200
#	14510
#	30562
#	41900
#	71320
#	85832
#	98255
#	101312
#	118907
#	128355
#	142722
#	169010
#
# Disc length: 2446 seconds
#
# Revision: 2
# Processed by: cddbd v1.4b42PL1 Copyright (c) Steve Scherf et al.
# Submitted via: EasyCDDAExtractor 4.5.0.2
#
DISCID=87098c0c
DTITLE=Jerry Douglas - Slide Rule
DYEAR=1992
DGENRE=Bluegrass
TTITLE0=Ride The Wild Turkey
TTITLE1=Pearlie Mae
TTITLE2=When Papa Played The Dobro
TTITLE3=We Hide and Seek
TTITLE4=I Don't Believe You've Met My Baby
TTITLE5=Shoulder To Shoulder
TTITLE6=Uncle Sam
TTITLE7=It's A Beautiful Life
TTITLE8=Rain On Oliviatown
TTITLE9=Hey Joe
TTITLE10=A New Day Medley
TTITLE11=Shenandoah Breakdown
EXTD=
EXTT0=
EXTT1=
EXTT2=
EXTT3=
EXTT4=
EXTT5=
EXTT6=
EXTT7=
EXTT8=
EXTT9=
EXTT10=
EXTT11=
PLAYORDER=
